<?xml version="1.0" encoding="UTF-8" standalone="no"?>
<!-- Created with Inkscape (http://www.inkscape.org/) -->

<svg
   width="270.60303mm"
   height="271.15582mm"
   viewBox="0 0 270.60303 271.15582"
   version="1.1"
   id="svg5"
   sodipodi:docname="logoChalkin_invertido.svg"
   inkscape:export-filename="C:\Users\sarar\OneDrive\Escritorio\logoChalkin.png"
   inkscape:export-xdpi="50"
   inkscape:export-ydpi="50"
   inkscape:version="1.1.2 (b8e25be833, 2022-02-05)"
   xmlns:inkscape="http://www.inkscape.org/namespaces/inkscape"
   xmlns:sodipodi="http://sodipodi.sourceforge.net/DTD/sodipodi-0.dtd"
   xmlns="http://www.w3.org/2000/svg"
   xmlns:svg="http://www.w3.org/2000/svg">
  <sodipodi:namedview
     id="namedview7"
     pagecolor="#ffffff"
     bordercolor="#666666"
     borderopacity="1.0"
     inkscape:pageshadow="2"
     inkscape:pageopacity="0.0"
     inkscape:pagecheckerboard="0"
     inkscape:document-units="mm"
     showgrid="false"
     inkscape:zoom="0.25921545"
     inkscape:cx="-669.3274"
     inkscape:cy="273.90343"
     inkscape:window-width="2560"
     inkscape:window-height="1009"
     inkscape:window-x="-8"
     inkscape:window-y="-8"
     inkscape:window-maximized="1"
     inkscape:current-layer="layer1" />
  <defs
     id="defs2" />
  <g
     inkscape:label="Capa 1"
     inkscape:groupmode="layer"
     id="layer1"
     transform="translate(31.000522,-15.354434)">
    <path
       style="fill:#c25d2f;stroke:none;stroke-width:0.264583"
       d="m 146.62618,202.8003 c -0.58844,5.74675 -2.46433,11.52816 -3.59834,17.19792 -0.49371,2.4683 -0.71913,5.91158 -2.35982,7.91422 -0.83343,1.01732 -1.98516,1.70682 -3.30226,1.83012 -1.34038,0.12541 -2.66409,-0.25982 -3.96875,-0.50827 -3.37079,-0.64188 -9.66232,-0.85222 -11.18526,-4.47569 -1.08241,-2.57598 0.17886,-5.88301 0.75115,-8.46455 1.30678,-5.8965 2.35188,-11.86815 3.81953,-17.72708 l 19.84375,4.23333"
       id="path1306" />
    <path
       style="fill:#ffffff;stroke:none;stroke-width:0.264583"
       d="m 131.01655,215.97735 c -5.25383,1.7227 -2.35346,9.92028 2.90936,8.17165 5.36337,-1.7817 2.43338,-9.92346 -2.90936,-8.17165 z"
       id="path1308" />
    <path
       style="fill:#c25d2f;stroke:none;stroke-width:0.264583"
       d="m 121.75532,181.36905 c 11.80174,3.71052 24.67346,5.3602 36.77709,7.9375 -0.86916,2.74638 -3.15622,8.57541 -5.82639,9.92135 -3.00091,1.51262 -9.31201,-1.0967 -12.42986,-1.8079 -4.13147,-0.94244 -8.2939,-1.77403 -12.43542,-2.67308 -1.64941,-0.35798 -3.92774,-0.41672 -5.0792,-1.82192 -1.31551,-1.60576 -0.90303,-4.8268 -1.0422,-6.79345 -0.11218,-1.583 -0.4863,-3.22077 0.036,-4.7625"
       id="path1304" />
    <path
       style="fill:#c25d2f;stroke:none;stroke-width:0.264583"
       d="m 119.37407,214.70655 h 0.26459 c -0.5551,3.65787 -2.34871,7.4885 -0.8091,11.1125 2.18573,5.14483 7.65096,5.6179 12.45076,6.672 2.0193,0.44344 4.26615,1.17845 6.35,0.90276 1.85156,-0.24501 3.41498,-1.14671 5.02709,-2.01851 -3.20517,9.73587 -15.18126,15.40431 -23.8125,19.2831 -19.030419,8.55239 -43.265989,14.8381 -60.854169,-0.19685 -2.81411,-2.40559 -5.32818,-5.14694 -7.37817,-8.23833 -4.19973,-6.33333 -5.74939,-13.29875 -7.17523,-20.6375 -1.533,-7.89093 -2.8239,-15.83267 -3.78619,-23.8125 -3.80021,-31.50843 -3.95023,-62.90548 -0.49848,-94.45624 1.43008,-13.070415 2.45137,-28.436091 8.69421,-40.216663 10.4013,-19.62732 32.71494,-22.879102 52.477199,-18.370285 6.57066,1.499129 12.96087,3.929856 19.04999,6.781535 25.66379,12.018433 52.65235,34.53368 52.65209,65.034583 0,5.06676 -0.47943,11.13789 -2.41459,15.87499 -3.0099,7.36759 -12.94633,3.46049 -18.4875,2.23203 -2.37648,-0.52679 -5.95392,-0.66411 -7.25514,-3.0316 -1.13638,-2.06745 -1.14009,-8.36771 1.46209,-9.41176 1.58697,-0.63685 4.35795,1.00939 5.42211,-0.73316 1.67693,-2.74636 -1.58671,-8.80612 -2.7514,-11.2805 -8.54552,-18.15571 -29.07083,-31.388845 -47.67765,-37.391446 -9.147969,-2.950898 -20.706029,-4.307681 -26.354089,5.376862 -2.68182,4.598458 -3.03345,9.903618 -3.56923,15.081249 -0.81968,7.920565 -1.30572,15.861505 -1.57269,23.812505 -0.80618,24.00801 -0.96043,47.96841 0.25453,71.96665 0.38947,7.69382 0.83424,15.35933 1.75631,23.01875 0.42624,3.54118 0.4437,7.20725 1.73143,10.58333 6.80906,17.84932 30.708599,8.74289 40.718049,-0.56541 2.33204,-2.16853 4.29393,-4.74901 6.08568,-7.37209"
       id="path1302" />
  </g>
</svg>
